<svg width="73" height="52" viewBox="0 0 73 52" fill="none" xmlns="http://www.w3.org/2000/svg">
<path d="M38.9873 49.4851L70.1698 35.8039C67.8763 31.474 65.9318 27.705 64.1919 24.3335C56.4114 9.24575 52.7945 2.23162 47.8401 2.22013C43.3625 2.20863 37.159 7.52899 25.5615 17.4687C19.7279 22.4696 12.5568 28.6151 3.56676 35.8176L38.9849 49.4851H38.9873ZM72.0771 37.2793L39.4455 51.5971C39.1943 51.7075 38.9012 51.7213 38.6267 51.6155L1.0756 37.1253C0.908128 37.0587 0.754612 36.9507 0.633659 36.8013C0.266149 36.3462 0.335929 35.682 0.79648 35.3166C10.4518 27.6291 18.0485 21.116 24.1682 15.8715C36.1565 5.59619 42.5717 0.0988786 47.8447 0.11037C54.1133 0.126457 57.9187 7.50371 66.1016 23.3728C68.0206 27.0936 70.1814 31.2833 72.5726 35.7786C72.5912 35.813 72.6121 35.8498 72.6284 35.8866C72.868 36.4198 72.6214 37.0426 72.0818 37.2793H72.0771Z" fill="white"/>
</svg>
